<svg width="278" height="278" viewBox="0 0 278 278" fill="none" xmlns="http://www.w3.org/2000/svg">
<rect width="278" height="278" fill="#1A1714"/>
<path opacity="0.1" d="M85.1299 162.068C85.1299 162.032 89.5777 162.08 98.061 162.559C105.663 162.988 109.883 164.809 112.2 166.202C120.999 171.492 123.674 176.228 126.666 182.093C127.745 184.667 129.08 188.332 130.452 194.538C131.825 200.745 133.193 209.382 134.604 219.143" stroke="#F7B667" stroke-width="20" stroke-linecap="round"/>
<path opacity="0.1" d="M149.169 219.825C149.169 219.721 149.214 212.966 150.321 198.787C150.909 191.257 153.459 183.257 154.822 178.456C156.571 172.292 158.666 169.146 161.504 165.417C164.499 161.482 168.484 158.422 172.261 155.724C179.482 151.699 183.489 150.281 185.115 149.899C185.922 149.722 186.691 149.579 187.676 149.371" stroke="#F7B667" stroke-width="20" stroke-linecap="round"/>
<path opacity="0.1" d="M155 66C155.035 66 155.138 72.1046 155.886 83.2391C156.488 92.221 159.471 96.8717 163.501 102.749C166.957 107.789 173.902 116.563 179.255 122.836C184.609 129.11 188.32 132.504 191.066 134.794C193.812 137.084 195.481 138.167 197.46 139.377" stroke="#F7B667" stroke-width="20" stroke-linecap="round"/>
<path opacity="0.1" d="M86.8579 144.742C87.6017 144.699 90.1846 144.298 94.019 142.501C99.6932 139.843 104.373 135.847 107.865 132.567C112.555 128.162 116.073 122.372 119.025 116.644C120.62 113.548 121.858 109.796 123.001 104.793C124.144 99.7897 125.012 93.5788 125.609 88.2275C126.205 82.8762 126.503 78.5727 126.777 75.226C127.05 71.8793 127.288 69.6198 127.587 66.5938" stroke="#F7B667" stroke-width="20" stroke-linecap="round"/>
<path d="M85.5 150.752C91.4288 150.491 101.645 145.557 105.489 143.948C108.45 142.708 112.837 139.225 118.667 134.266C126.335 127.744 127.585 123.858 129.392 119.012C130.761 115.343 132.372 108.984 133.974 100.287C135.576 91.5907 136.948 80.689 137.689 71.964C138.956 57.0528 138.703 49.8691 138.92 49.015C138.953 48.8819 139.036 49.4579 140.211 58.0884C141.387 66.7189 143.704 83.412 145.449 93.5083C147.195 103.605 148.299 106.598 150.065 110.145C153.91 117.866 158.414 123.868 162.944 128.548C165.626 131.319 169.6 134.375 173.204 136.912C179.833 141.577 186.755 144.135 192.117 145.777C194.668 146.557 196.195 146.643 197.264 146.802C197.848 146.888 189.903 149.017 178.573 152.137C169.455 154.648 162.966 156.339 159.207 158.063C155.941 159.561 154.408 161.498 150.152 168.328C148.864 170.395 148.04 172.536 146.841 176.493C145.642 180.45 144.218 186.229 143.295 197.775C142.371 209.321 141.99 226.459 141.798 227.152C141.607 227.845 141.616 211.574 141.275 201.755C140.833 189.028 138.949 184.686 136.544 179.965C132.113 171.266 127.28 164.865 124.414 162.074C118.388 156.206 112.763 155.172 103.527 153.805C97.1783 152.864 87.282 152.87 81.9312 152.635C76.5804 152.401 76.031 152.296 76.0012 152.119C75.9713 151.942 76.4777 151.696 80.57 150.752C84.6623 149.808 92.3253 148.172 102.909 147.085C113.492 145.997 126.763 145.507 136.115 145.324C145.467 145.141 150.497 145.279 152.788 145.572C154.617 145.807 149.216 152.107 141.917 159.659C139.514 162.146 138.735 160.804 137.965 158.699C136.074 153.529 134.955 148.963 134.652 144.536C134.439 141.435 134.605 136.575 135.143 131.617C136.222 121.679 138.196 115.557 139.073 113.666C139.696 112.322 141.033 112.051 142.142 111.945C142.736 111.887 143.405 111.989 144.275 112.784C145.146 113.58 146.202 115.108 147.413 120.025C150.624 133.057 151.715 142.368 152.668 143.648C156.073 145.998 162.829 148.236 169.236 148.601C170.033 148.38 169.828 147.933 168.539 146.522" stroke="#F7B667" stroke-width="20" stroke-linecap="round"/>
</svg>
